<svg width="16" height="16" viewBox="0 0 16 16" fill="none" xmlns="http://www.w3.org/2000/svg">
<g clip-path="url(#clip0_14_758)">
<path d="M10.8808 4.15625C10.8808 3.62374 11.311 3.19353 11.8435 3.19347C11.8435 3.19347 11.8436 3.19347 11.8436 3.19347V3.29347L10.8808 4.15625ZM10.8808 4.15625C10.8808 4.6888 11.3111 5.11903 11.8436 5.11903M10.8808 4.15625L11.8436 5.11903M11.8436 5.11903C12.376 5.11903 12.8063 4.69081 12.8064 4.15638L11.8436 5.11903ZM12.9998 13.0013L12.9995 13.0016C12.7553 13.2458 12.5236 13.3969 12.2082 13.5234C11.753 13.7042 10.9709 13.7774 10.157 13.8034C9.57443 13.8219 8.98676 13.8162 8.50595 13.8115C8.3181 13.8097 8.14656 13.808 7.99801 13.808C7.84901 13.808 7.67685 13.8097 7.48828 13.8116C7.00762 13.8162 6.42032 13.822 5.83813 13.8036C5.02385 13.7779 4.24128 13.7051 3.78603 13.5252C3.47038 13.3986 3.23707 13.2475 2.99494 13.0036L2.99469 13.0034C2.7505 12.7592 2.59946 12.5275 2.47294 12.2122C2.29297 11.756 2.22019 10.9733 2.19447 10.1593C2.17608 9.57725 2.18181 8.99025 2.18649 8.50975C2.18833 8.32121 2.19001 8.14906 2.19001 8.00005C2.19001 7.85105 2.18833 7.67889 2.18649 7.49032C2.18181 7.00966 2.17608 6.42236 2.19447 5.84017C2.22019 5.02583 2.29297 4.24321 2.47292 3.78797C2.59953 3.47238 2.7506 3.23909 2.99444 2.99698C3.23897 2.75418 3.47083 2.60137 3.78595 2.47495C4.24119 2.29501 5.0238 2.22223 5.83813 2.19651C6.42032 2.17812 7.00762 2.18385 7.48828 2.18854C7.67686 2.19038 7.84902 2.19206 7.99801 2.19206C8.14701 2.19206 8.31917 2.19038 8.50775 2.18854C8.9884 2.18385 9.5757 2.17812 10.1579 2.19651C10.9722 2.22223 11.7549 2.29502 12.2101 2.47496C12.5257 2.60157 12.759 2.75264 13.0011 2.99648L13.0013 2.99673C13.2455 3.24092 13.3966 3.47257 13.5231 3.78792C13.7031 4.24316 13.7758 5.0258 13.8016 5.84017C13.82 6.42236 13.8142 7.00966 13.8095 7.49031C13.8077 7.67889 13.806 7.85105 13.806 8.00005C13.806 8.1486 13.8077 8.32014 13.8095 8.50799C13.8142 8.9888 13.8199 9.57646 13.8013 10.159C13.7754 10.973 13.7021 11.7551 13.5213 12.2103C13.3947 12.5259 13.2436 12.7592 12.9998 13.0013ZM7.99801 4.20575C5.8984 4.20575 4.20371 5.90044 4.20371 8.00005C4.20371 10.0997 5.8984 11.7943 7.99801 11.7943C10.0976 11.7943 11.7923 10.0997 11.7923 8.00005C11.7923 5.90044 10.0976 4.20575 7.99801 4.20575ZM7.99801 10.3011C6.73115 10.3011 5.69699 9.26691 5.69699 8.00005C5.69699 6.73318 6.73115 5.69903 7.99801 5.69903C9.26488 5.69903 10.299 6.73318 10.299 8.00005C10.299 9.26691 9.26488 10.3011 7.99801 10.3011ZM15.2993 8.00005C15.2993 7.87884 15.2994 7.7577 15.2996 7.63659C15.3005 6.7658 15.3015 5.89709 15.2523 5.02281C15.1958 3.85762 14.9289 2.80601 14.0614 1.93849C13.192 1.06914 12.1422 0.804036 10.977 0.747552C10.1012 0.698378 9.23224 0.699346 8.36261 0.700315C8.2417 0.70045 8.12078 0.700585 7.99981 0.700585C7.87861 0.700585 7.75746 0.70045 7.63636 0.700315C6.76556 0.699346 5.89685 0.698379 5.02258 0.747552C3.85738 0.804039 2.80577 1.07097 1.93825 1.93849C1.0689 2.80784 0.803792 3.85767 0.747308 5.02282C0.698134 5.8987 0.699102 6.76762 0.700071 7.63725C0.700206 7.75816 0.70034 7.87909 0.70034 8.00005C0.70034 8.12099 0.700206 8.24193 0.700071 8.36287C0.699102 9.23282 0.698132 10.103 0.747308 10.9773C0.803795 12.1425 1.07072 13.1941 1.93825 14.0616C2.80759 14.9309 3.85741 15.1961 5.02256 15.2525C5.89845 15.3017 6.76739 15.3008 7.63704 15.2998C7.75794 15.2996 7.87886 15.2995 7.99981 15.2995C8.12101 15.2995 8.24215 15.2996 8.36324 15.2998C9.23405 15.3008 10.1028 15.3017 10.9771 15.2525C12.1423 15.1961 13.1939 14.9291 14.0614 14.0616C14.9307 13.1923 15.1958 12.1425 15.2523 10.9773C15.3022 10.1173 15.301 9.26256 15.2997 8.40622C15.2995 8.27088 15.2993 8.1355 15.2993 8.00005Z" fill="#F3CD47" stroke="#F3CD47" stroke-width="0.2"/>
</g>
<defs>
<clipPath id="clip0_14_758">
<rect width="16" height="16" fill="white"/>
</clipPath>
</defs>
</svg>
