<svg width="32" height="32" viewBox="0 0 32 32" fill="none" xmlns="http://www.w3.org/2000/svg">
<g clip-path="url(#clip0_14_817)">
<rect x="0.5" y="0.5" width="31" height="31" rx="15.5" stroke="white"/>
<path d="M15.9998 8.56003C17.2569 8.56003 18.2795 9.58256 18.2795 10.8396C18.2795 12.0957 17.2567 13.1182 15.9998 13.1182C14.7435 13.1182 13.7208 12.0957 13.7208 10.8396C13.7205 9.5823 14.7438 8.56003 15.9998 8.56003ZM15.9998 16.3434C19.0363 16.3434 21.5057 13.8748 21.5057 10.8396C21.5057 7.80288 19.0366 5.33325 15.9998 5.33325C12.9636 5.33325 10.494 7.80314 10.494 10.8396C10.494 13.8748 12.9636 16.3434 15.9998 16.3434ZM18.2273 20.8344C19.3599 20.5764 20.4408 20.1289 21.4243 19.5106C21.7863 19.2828 22.0431 18.9205 22.138 18.5035C22.2329 18.0864 22.1583 17.6487 21.9305 17.2866C21.8179 17.1072 21.6709 16.9517 21.4982 16.8291C21.3254 16.7064 21.1301 16.6191 20.9235 16.572C20.7169 16.5249 20.5031 16.519 20.2942 16.5546C20.0854 16.5902 19.8856 16.6667 19.7063 16.7796C17.4506 18.1977 14.5475 18.1966 12.2937 16.7796C12.1144 16.6666 11.9146 16.5902 11.7058 16.5545C11.4969 16.5189 11.2831 16.5248 11.0765 16.5719C10.87 16.619 10.6747 16.7064 10.5019 16.829C10.3292 16.9516 10.1823 17.1071 10.0697 17.2866C9.84182 17.6486 9.76707 18.0862 9.86186 18.5033C9.95665 18.9204 10.2132 19.2827 10.5751 19.5106C11.5585 20.1286 12.6392 20.5762 13.7716 20.8344L10.6937 23.9128C10.3913 24.2154 10.2214 24.6257 10.2215 25.0535C10.2215 25.4814 10.3916 25.8916 10.6941 26.1941C10.9967 26.4966 11.407 26.6665 11.8349 26.6664C12.2627 26.6663 12.673 26.4963 12.9755 26.1937L15.9993 23.1693L19.025 26.194C19.1746 26.3438 19.3523 26.4627 19.5479 26.5437C19.7434 26.6248 19.9531 26.6666 20.1648 26.6666C20.3765 26.6666 20.5862 26.6248 20.7818 26.5437C20.9773 26.4627 21.155 26.3438 21.3046 26.194C21.4547 26.0444 21.5737 25.8667 21.6549 25.671C21.7362 25.4753 21.778 25.2655 21.778 25.0536C21.778 24.8418 21.7362 24.632 21.6549 24.4363C21.5737 24.2406 21.4547 24.0629 21.3046 23.9133L18.2273 20.8344Z" fill="white"/>
</g>
<defs>
<clipPath id="clip0_14_817">
<rect width="32" height="32" fill="white"/>
</clipPath>
</defs>
</svg>
