<svg width="32" height="32" viewBox="0 0 32 32" fill="none" xmlns="http://www.w3.org/2000/svg">
<g clip-path="url(#clip0_18_2621)">
<rect x="0.5" y="0.5" width="31" height="31" rx="15.5" stroke="#193E6B"/>
<path d="M16.0004 8.56009C17.2574 8.56009 18.28 9.58262 18.28 10.8397C18.28 12.0957 17.2572 13.1183 16.0004 13.1183C14.7441 13.1183 13.7213 12.0957 13.7213 10.8397C13.721 9.58236 14.7443 8.56009 16.0004 8.56009ZM16.0004 16.3435C19.0369 16.3435 21.5062 13.8749 21.5062 10.8397C21.5062 7.80294 19.0371 5.33331 16.0004 5.33331C12.9641 5.33331 10.4945 7.8032 10.4945 10.8397C10.4945 13.8749 12.9641 16.3435 16.0004 16.3435ZM18.2278 20.8344C19.3604 20.5765 20.4413 20.1289 21.4248 19.5107C21.7868 19.2829 22.0436 18.9206 22.1385 18.5035C22.2335 18.0864 22.1588 17.6487 21.931 17.2867C21.8184 17.1072 21.6715 16.9517 21.4987 16.8291C21.3259 16.7065 21.1306 16.6191 20.924 16.572C20.7174 16.525 20.5036 16.519 20.2947 16.5547C20.0859 16.5903 19.8861 16.6667 19.7068 16.7796C17.4511 18.1977 14.548 18.1967 12.2942 16.7796C12.1149 16.6667 11.9152 16.5902 11.7063 16.5546C11.4975 16.519 11.2836 16.5249 11.0771 16.572C10.8705 16.6191 10.6752 16.7064 10.5025 16.8291C10.3297 16.9517 10.1828 17.1072 10.0702 17.2867C9.84234 17.6486 9.76759 18.0863 9.86238 18.5033C9.95717 18.9204 10.2137 19.2828 10.5757 19.5107C11.559 20.1287 12.6397 20.5762 13.7721 20.8344L10.6943 23.9128C10.3918 24.2154 10.2219 24.6258 10.222 25.0536C10.222 25.4814 10.3921 25.8917 10.6947 26.1942C10.9972 26.4966 11.4076 26.6665 11.8354 26.6664C12.2632 26.6664 12.6735 26.4963 12.976 26.1938L15.9998 23.1694L19.0255 26.194C19.1751 26.3439 19.3528 26.4627 19.5484 26.5438C19.744 26.6249 19.9536 26.6666 20.1653 26.6666C20.3771 26.6666 20.5867 26.6249 20.7823 26.5438C20.9779 26.4627 21.1555 26.3439 21.3051 26.194C21.4552 26.0444 21.5742 25.8667 21.6555 25.671C21.7367 25.4754 21.7785 25.2656 21.7785 25.0537C21.7785 24.8418 21.7367 24.632 21.6555 24.4364C21.5742 24.2407 21.4552 24.063 21.3051 23.9134L18.2278 20.8344Z" fill="#193E6B"/>
</g>
<defs>
<clipPath id="clip0_18_2621">
<rect width="32" height="32" fill="white"/>
</clipPath>
</defs>
</svg>
