<svg width="16" height="16" viewBox="0 0 16 16" fill="none" xmlns="http://www.w3.org/2000/svg">
<g id="shopping-bag">
<path id="Vector" d="M4 1.33334L2 4V13.3333C2 13.687 2.14048 14.0261 2.39052 14.2761C2.64057 14.5262 2.97971 14.6667 3.33333 14.6667H12.6667C13.0203 14.6667 13.3594 14.5262 13.6095 14.2761C13.8595 14.0261 14 13.687 14 13.3333V4L12 1.33334H4Z" stroke="#19676B" stroke-width="2" stroke-linecap="round" stroke-linejoin="round"/>
<path id="Vector_2" d="M2 4H14" stroke="#19676B" stroke-width="2" stroke-linecap="round" stroke-linejoin="round"/>
<path id="Vector_3" d="M10.6673 6.66675C10.6673 7.37399 10.3864 8.05227 9.88627 8.55237C9.38617 9.05246 8.7079 9.33341 8.00065 9.33341C7.29341 9.33341 6.61513 9.05246 6.11503 8.55237C5.61494 8.05227 5.33398 7.37399 5.33398 6.66675" stroke="#19676B" stroke-width="2" stroke-linecap="round" stroke-linejoin="round"/>
</g>
</svg>
