<svg width="32" height="32" viewBox="0 0 32 32" fill="none" xmlns="http://www.w3.org/2000/svg">
<g clip-path="url(#clip0_18_2622)">
<rect x="0.5" y="0.5" width="31" height="31" rx="15.5" stroke="#193E6B"/>
<path fill-rule="evenodd" clip-rule="evenodd" d="M26.1778 11.0231C26.3262 10.5286 26.1779 10.1652 25.472 10.1652H23.1381C22.5447 10.1652 22.2713 10.4791 22.1229 10.8254C22.1229 10.8254 20.936 13.7182 19.2546 15.5973C18.7106 16.1413 18.4634 16.3142 18.1666 16.3142C18.0183 16.3142 17.8036 16.1413 17.8036 15.6468V11.0231C17.8036 10.4296 17.6314 10.1652 17.1367 10.1652H13.4692C13.0985 10.1652 12.8754 10.4406 12.8754 10.7017C12.8754 11.2643 13.7159 11.394 13.8026 12.9764V16.4133C13.8026 17.1669 13.6666 17.3036 13.3699 17.3036C12.5787 17.3036 10.6542 14.3975 9.51263 11.0726C9.28891 10.4263 9.06452 10.1652 8.46805 10.1652H6.13417C5.46735 10.1652 5.33398 10.4791 5.33398 10.8254C5.33398 11.4435 6.12534 14.5096 9.01818 18.5645C10.947 21.3335 13.6639 22.8348 16.1365 22.8348C17.6202 22.8348 17.8036 22.5014 17.8036 21.9271V19.8341C17.8036 19.1673 17.9441 19.0343 18.4137 19.0343C18.7601 19.0343 19.3534 19.2073 20.7382 20.5425C22.3206 22.1247 22.5813 22.8348 23.4716 22.8348H25.8054C26.4723 22.8348 26.8057 22.5014 26.6133 21.8434C26.4029 21.1876 25.6474 20.2364 24.6448 19.1085C24.1009 18.4655 23.2848 17.7732 23.0378 17.4271C22.6915 16.982 22.7904 16.7843 23.0378 16.3888C23.0378 16.3888 25.8811 12.3832 26.1778 11.0233V11.0231Z" fill="#193E6B"/>
</g>
<defs>
<clipPath id="clip0_18_2622">
<rect width="32" height="32" fill="white"/>
</clipPath>
</defs>
</svg>
