<svg width="32" height="32" viewBox="0 0 32 32" fill="none" xmlns="http://www.w3.org/2000/svg">
<g clip-path="url(#clip0_14_818)">
<rect x="0.5" y="0.5" width="31" height="31" rx="15.5" stroke="white"/>
<path fill-rule="evenodd" clip-rule="evenodd" d="M26.1772 11.0232C26.3256 10.5287 26.1772 10.1653 25.4714 10.1653H23.1375C22.544 10.1653 22.2706 10.4792 22.1223 10.8254C22.1223 10.8254 20.9353 13.7183 19.2539 15.5974C18.71 16.1413 18.4627 16.3142 18.166 16.3142C18.0176 16.3142 17.8029 16.1413 17.8029 15.6469V11.0232C17.8029 10.4297 17.6307 10.1653 17.1361 10.1653H13.4686C13.0978 10.1653 12.8748 10.4407 12.8748 10.7017C12.8748 11.2644 13.7153 11.3941 13.802 12.9764V16.4134C13.802 17.1669 13.666 17.3036 13.3692 17.3036C12.578 17.3036 10.6536 14.3976 9.51199 11.0727C9.28827 10.4263 9.06388 10.1653 8.46741 10.1653H6.13353C5.46671 10.1653 5.33334 10.4792 5.33334 10.8254C5.33334 11.4436 6.12469 14.5096 9.01754 18.5646C10.9463 21.3336 13.6633 22.8349 16.1359 22.8349C17.6195 22.8349 17.8029 22.5015 17.8029 21.9272V19.8342C17.8029 19.1674 17.9435 19.0344 18.4131 19.0344C18.7595 19.0344 19.3528 19.2074 20.7376 20.5425C22.32 22.1247 22.5807 22.8349 23.4709 22.8349H25.8048C26.4716 22.8349 26.805 22.5015 26.6126 21.8435C26.4023 21.1877 25.6468 20.2365 24.6442 19.1085C24.1002 18.4656 23.2842 17.7732 23.0371 17.4271C22.6909 16.982 22.7898 16.7843 23.0371 16.3889C23.0371 16.3889 25.8805 12.3833 26.1772 11.0233V11.0232Z" fill="white"/>
</g>
<defs>
<clipPath id="clip0_14_818">
<rect width="32" height="32" fill="white"/>
</clipPath>
</defs>
</svg>
