<svg width="32" height="32" viewBox="0 0 32 32" fill="none" xmlns="http://www.w3.org/2000/svg">
<g clip-path="url(#clip0_18_2623)">
<rect x="0.5" y="0.5" width="31" height="31" rx="15.5" stroke="#193E6B"/>
<path fill-rule="evenodd" clip-rule="evenodd" d="M24.5656 16.113C24.3595 15.3476 23.756 14.7441 22.9906 14.538C21.5923 14.1553 15.999 14.1553 15.999 14.1553C15.999 14.1553 10.4057 14.1553 9.00739 14.5233C8.25671 14.7294 7.6385 15.3476 7.43243 16.113C7.06445 17.5113 7.06445 20.411 7.06445 20.411C7.06445 20.411 7.06445 23.3254 7.43243 24.709C7.6385 25.4744 8.24199 26.0779 9.00739 26.284C10.4204 26.6667 15.999 26.6667 15.999 26.6667C15.999 26.6667 21.5923 26.6667 22.9906 26.2987C23.756 26.0926 24.3595 25.4891 24.5656 24.7237C24.9336 23.3254 24.9336 20.4257 24.9336 20.4257C24.9336 20.4257 24.9483 17.5113 24.5656 16.113ZM20.9168 21.8271V22.0872C20.9168 22.4147 20.9265 22.6652 20.9457 22.8289C20.965 22.9927 21.0035 23.1179 21.071 23.1854C21.1288 23.2624 21.2251 23.301 21.36 23.301C21.5334 23.301 21.649 23.2335 21.7164 23.0987C21.7838 22.9638 21.8127 22.7422 21.8224 22.4243L22.8146 22.4821C22.8242 22.5303 22.8242 22.5881 22.8242 22.6652C22.8242 23.1372 22.699 23.4936 22.4389 23.7248C22.1788 23.956 21.8127 24.0716 21.3407 24.0716C20.7723 24.0716 20.3774 23.8886 20.1462 23.5322C19.915 23.1757 19.7994 22.6266 19.7994 21.8753V20.9794C19.7994 20.2087 19.915 19.65 20.1558 19.2936C20.3967 18.9371 20.8012 18.7637 21.3696 18.7637C21.7646 18.7637 22.0728 18.8408 22.2848 18.9853C22.4967 19.1298 22.6412 19.361 22.7279 19.6596C22.8146 19.9679 22.8531 20.3917 22.8531 20.9312V21.8078H20.9168V21.8271ZM21.0613 19.6692C21.0035 19.7463 20.965 19.8619 20.9457 20.0257C20.9265 20.1894 20.9168 20.4399 20.9168 20.7771V21.1431H21.7646V20.7771C21.7646 20.4495 21.7549 20.1991 21.7357 20.0257C21.7164 19.8523 21.6682 19.7367 21.6104 19.6692C21.5526 19.6018 21.4563 19.5633 21.3407 19.5633C21.2058 19.5536 21.1191 19.5922 21.0613 19.6692ZM15.3488 24.0139V18.8794H14.1928V22.9543C14.1543 23.0506 14.0869 23.1277 13.9905 23.1855C13.8942 23.2529 13.7979 23.2818 13.7015 23.2818C13.5859 23.2818 13.4992 23.2337 13.4511 23.1373C13.4029 23.041 13.374 22.8772 13.374 22.646V18.8794H12.218V22.7135C12.218 23.1951 12.2951 23.5419 12.4589 23.7635C12.6226 23.985 12.8731 24.1006 13.2102 24.1006C13.7015 24.1006 14.0772 23.8598 14.3181 23.3878H14.347L14.4433 24.0139H15.3488ZM12.5648 17.916H11.4185V24.0042H10.2914V17.916H9.14502V16.9816H12.5648V17.916ZM18.8361 18.9949C18.9902 19.1394 19.1058 19.3706 19.1732 19.6981C19.2407 20.016 19.2696 20.4688 19.2792 21.0564V21.8656C19.2792 22.6266 19.1829 23.195 18.9998 23.5514C18.8168 23.9079 18.5374 24.0909 18.1425 24.0909C17.9209 24.0909 17.7282 24.0331 17.5452 23.9368C17.3622 23.8308 17.2273 23.6959 17.1406 23.5225H17.1117L16.9961 24.0042H16.0424V16.7215H17.1599V19.4284H17.1695C17.2658 19.2358 17.4103 19.072 17.5934 18.9564C17.7764 18.8312 17.9787 18.7734 18.1906 18.7734C18.4604 18.7734 18.6819 18.8504 18.8361 18.9949ZM18.0654 22.6652C18.0943 22.4532 18.1136 22.1642 18.1136 21.7886H18.1232V21.1142C18.1232 20.7193 18.1136 20.411 18.0847 20.1894C18.0558 19.9775 18.0172 19.8234 17.9498 19.727C17.892 19.6403 17.7957 19.5922 17.6801 19.5922C17.5741 19.5922 17.4681 19.6403 17.3718 19.727C17.2755 19.8234 17.208 19.939 17.1695 20.0738V22.9831C17.2177 23.0698 17.2851 23.1372 17.3622 23.1854C17.4392 23.2335 17.5259 23.2528 17.6223 23.2528C17.7379 23.2528 17.8342 23.2046 17.9113 23.1179C17.9787 23.0312 18.0365 22.8771 18.0654 22.6652Z" fill="#193E6B"/>
<path d="M14.9151 12.2115C14.6839 12.0573 14.5201 11.8165 14.4238 11.4793C14.3275 11.1518 14.2793 10.7087 14.2793 10.1692V9.42747C14.2793 8.87838 14.3371 8.43525 14.4431 8.09809C14.5587 7.76092 14.7321 7.52009 14.9633 7.36596C15.2041 7.21183 15.5123 7.13477 15.8977 7.13477C16.2734 7.13477 16.5816 7.21183 16.8128 7.36596C17.044 7.52009 17.2078 7.77056 17.3138 8.09809C17.4197 8.42562 17.4775 8.86874 17.4775 9.42747V10.1692C17.4775 10.7183 17.4294 11.1518 17.3234 11.489C17.2174 11.8165 17.0537 12.067 16.8225 12.2211C16.5913 12.3752 16.2734 12.4523 15.8784 12.4523C15.4738 12.4427 15.1463 12.3656 14.9151 12.2115ZM16.2156 11.4023C16.283 11.2385 16.3119 10.9592 16.3119 10.5835V8.98434C16.3119 8.61828 16.283 8.34855 16.2156 8.17515C16.1481 8.00175 16.0422 7.92469 15.8784 7.92469C15.7243 7.92469 15.6087 8.01139 15.5509 8.17515C15.4834 8.34855 15.4545 8.61828 15.4545 8.98434V10.5835C15.4545 10.9592 15.4834 11.2385 15.5509 11.4023C15.6087 11.566 15.7243 11.6527 15.888 11.6527C16.0422 11.6527 16.1481 11.5757 16.2156 11.4023Z" fill="#193E6B"/>
<path d="M12.1031 10.0824L10.793 5.33325H11.9393L12.4017 7.48146C12.5173 8.01128 12.604 8.46405 12.6618 8.83974H12.6907C12.7292 8.57001 12.8159 8.12688 12.9508 7.49109L13.4325 5.33325H14.5788L13.2494 10.0824V12.3559H12.1127V10.0824H12.1031Z" fill="#193E6B"/>
<path d="M21.207 7.23102V12.3655H20.3014L20.2051 11.7394H20.1762C19.9354 12.2114 19.5597 12.4522 19.0684 12.4522C18.7312 12.4522 18.4808 12.3366 18.317 12.1151C18.1532 11.8935 18.0762 11.5467 18.0762 11.065V7.23102H19.2322V10.9976C19.2322 11.2288 19.2611 11.3926 19.3092 11.4889C19.3574 11.5852 19.4441 11.6334 19.5597 11.6334C19.656 11.6334 19.7523 11.6045 19.8487 11.5371C19.945 11.4793 20.0124 11.4022 20.051 11.3059V7.23102H21.207Z" fill="#193E6B"/>
</g>
<defs>
<clipPath id="clip0_18_2623">
<rect width="32" height="32" fill="white"/>
</clipPath>
</defs>
</svg>
