<svg width="32" height="32" viewBox="0 0 32 32" fill="none" xmlns="http://www.w3.org/2000/svg">
<g clip-path="url(#clip0_14_819)">
<rect x="0.5" y="0.5" width="31" height="31" rx="15.5" stroke="white"/>
<path fill-rule="evenodd" clip-rule="evenodd" d="M24.5665 16.1129C24.3605 15.3475 23.757 14.744 22.9916 14.538C21.5933 14.1553 16 14.1553 16 14.1553C16 14.1553 10.4067 14.1553 9.00833 14.5233C8.25766 14.7293 7.63945 15.3475 7.43338 16.1129C7.0654 17.5113 7.0654 20.4109 7.0654 20.4109C7.0654 20.4109 7.0654 23.3253 7.43338 24.7089C7.63945 25.4743 8.24294 26.0778 9.00833 26.2839C10.4214 26.6666 16 26.6666 16 26.6666C16 26.6666 21.5933 26.6666 22.9916 26.2986C23.757 26.0926 24.3605 25.4891 24.5665 24.7237C24.9345 23.3253 24.9345 20.4257 24.9345 20.4257C24.9345 20.4257 24.9492 17.5113 24.5665 16.1129ZM20.9178 21.827V22.0871C20.9178 22.4146 20.9274 22.6651 20.9467 22.8289C20.966 22.9926 21.0045 23.1179 21.0719 23.1853C21.1297 23.2624 21.2261 23.3009 21.3609 23.3009C21.5343 23.3009 21.6499 23.2335 21.7173 23.0986C21.7848 22.9637 21.8137 22.7422 21.8233 22.4243L22.8155 22.4821C22.8252 22.5302 22.8252 22.588 22.8252 22.6651C22.8252 23.1371 22.6999 23.4936 22.4398 23.7248C22.1797 23.956 21.8137 24.0716 21.3417 24.0716C20.7733 24.0716 20.3783 23.8885 20.1471 23.5321C19.9159 23.1757 19.8003 22.6266 19.8003 21.8752V20.9793C19.8003 20.2086 19.9159 19.6499 20.1568 19.2935C20.3976 18.9371 20.8022 18.7637 21.3706 18.7637C21.7655 18.7637 22.0738 18.8407 22.2857 18.9852C22.4976 19.1297 22.6421 19.3609 22.7288 19.6596C22.8155 19.9678 22.8541 20.3917 22.8541 20.9311V21.8078H20.9178V21.827ZM21.0623 19.6692C21.0045 19.7463 20.966 19.8618 20.9467 20.0256C20.9274 20.1894 20.9178 20.4398 20.9178 20.777V21.1431H21.7655V20.777C21.7655 20.4495 21.7559 20.199 21.7366 20.0256C21.7173 19.8522 21.6692 19.7366 21.6114 19.6692C21.5536 19.6018 21.4572 19.5632 21.3417 19.5632C21.2068 19.5536 21.1201 19.5921 21.0623 19.6692ZM15.3498 24.0139V18.8794H14.1938V22.9542C14.1553 23.0506 14.0878 23.1276 13.9915 23.1854C13.8952 23.2529 13.7988 23.2818 13.7025 23.2818C13.5869 23.2818 13.5002 23.2336 13.452 23.1373C13.4039 23.0409 13.375 22.8772 13.375 22.646V18.8794H12.219V22.7134C12.219 23.1951 12.296 23.5419 12.4598 23.7634C12.6236 23.985 12.874 24.1006 13.2112 24.1006C13.7025 24.1006 14.0782 23.8598 14.319 23.3877H14.3479L14.4442 24.0139H15.3498ZM12.5658 17.9159H11.4194V24.0041H10.2923V17.9159H9.14596V16.9815H12.5658V17.9159ZM18.837 18.9949C18.9911 19.1394 19.1067 19.3706 19.1742 19.6981C19.2416 20.016 19.2705 20.4687 19.2801 21.0564V21.8656C19.2801 22.6266 19.1838 23.1949 19.0008 23.5514C18.8177 23.9078 18.5384 24.0908 18.1434 24.0908C17.9218 24.0908 17.7292 24.033 17.5462 23.9367C17.3631 23.8307 17.2283 23.6959 17.1416 23.5225H17.1127L16.9971 24.0041H16.0434V16.7214H17.1608V19.4284H17.1705C17.2668 19.2357 17.4113 19.0719 17.5943 18.9563C17.7773 18.8311 17.9796 18.7733 18.1916 18.7733C18.4613 18.7733 18.6829 18.8504 18.837 18.9949ZM18.0663 22.6651C18.0952 22.4532 18.1145 22.1642 18.1145 21.7885H18.1241V21.1142C18.1241 20.7192 18.1145 20.4109 18.0856 20.1894C18.0567 19.9774 18.0182 19.8233 17.9507 19.727C17.8929 19.6403 17.7966 19.5921 17.681 19.5921C17.5751 19.5921 17.4691 19.6403 17.3728 19.727C17.2764 19.8233 17.209 19.9389 17.1705 20.0738V22.983C17.2186 23.0697 17.2861 23.1371 17.3631 23.1853C17.4402 23.2335 17.5269 23.2527 17.6232 23.2527C17.7388 23.2527 17.8351 23.2046 17.9122 23.1179C17.9796 23.0312 18.0374 22.877 18.0663 22.6651Z" fill="white"/>
<path d="M14.9163 12.2115C14.6851 12.0573 14.5213 11.8165 14.425 11.4793C14.3287 11.1518 14.2805 10.7087 14.2805 10.1692V9.42747C14.2805 8.87838 14.3383 8.43525 14.4443 8.09809C14.5599 7.76092 14.7332 7.52009 14.9644 7.36596C15.2053 7.21183 15.5135 7.13477 15.8989 7.13477C16.2746 7.13477 16.5828 7.21183 16.814 7.36596C17.0452 7.52009 17.209 7.77056 17.3149 8.09809C17.4209 8.42562 17.4787 8.86874 17.4787 9.42747V10.1692C17.4787 10.7183 17.4305 11.1518 17.3246 11.489C17.2186 11.8165 17.0549 12.067 16.8237 12.2211C16.5925 12.3752 16.2746 12.4523 15.8796 12.4523C15.475 12.4427 15.1475 12.3656 14.9163 12.2115ZM16.2168 11.4023C16.2842 11.2385 16.3131 10.9592 16.3131 10.5835V8.98434C16.3131 8.61828 16.2842 8.34855 16.2168 8.17515C16.1493 8.00175 16.0434 7.92469 15.8796 7.92469C15.7255 7.92469 15.6099 8.01139 15.5521 8.17515C15.4846 8.34855 15.4557 8.61828 15.4557 8.98434V10.5835C15.4557 10.9592 15.4846 11.2385 15.5521 11.4023C15.6099 11.566 15.7255 11.6527 15.8892 11.6527C16.0434 11.6527 16.1493 11.5757 16.2168 11.4023Z" fill="white"/>
<path d="M12.1034 10.0824L10.7932 5.33325H11.9396L12.402 7.48146C12.5176 8.01128 12.6043 8.46405 12.6621 8.83974H12.691C12.7295 8.57001 12.8162 8.12688 12.9511 7.49109L13.4327 5.33325H14.5791L13.2497 10.0824V12.3559H12.113V10.0824H12.1034Z" fill="white"/>
<path d="M21.2068 7.23096V12.3655H20.3013L20.2049 11.7393H20.176C19.9352 12.2113 19.5595 12.4522 19.0682 12.4522C18.731 12.4522 18.4806 12.3366 18.3168 12.115C18.1531 11.8934 18.076 11.5466 18.076 11.065V7.23096H19.232V10.9975C19.232 11.2287 19.2609 11.3925 19.309 11.4888C19.3572 11.5852 19.4439 11.6333 19.5595 11.6333C19.6558 11.6333 19.7522 11.6044 19.8485 11.537C19.9448 11.4792 20.0123 11.4021 20.0508 11.3058V7.23096H21.2068Z" fill="white"/>
</g>
<defs>
<clipPath id="clip0_14_819">
<rect width="32" height="32" fill="white"/>
</clipPath>
</defs>
</svg>
